  0
SECTION
  2
HEADER
  9
$ACADVER
  1
AC1009
  9
$DWGCODEPAGE
  3
ansi_1252
  9
$INSBASE
 10
0.0
 20
0.0
 30
0.0
  9
$EXTMIN
 10
0.0
 20
-19.0
 30
0.0
  9
$EXTMAX
 10
80.0
 20
19.0
 30
0.0
  9
$LIMMIN
 10
0.0
 20
0.0
  9
$LIMMAX
 10
12.0
 20
9.0
  9
$ORTHOMODE
 70
     0
  9
$REGENMODE
 70
     1
  9
$FILLMODE
 70
     1
  9
$QTEXTMODE
 70
     0
  9
$MIRRTEXT
 70
     1
  9
$DRAGMODE
 70
     2
  9
$LTSCALE
 40
1.0
  9
$OSMODE
 70
    37
  9
$ATTMODE
 70
     1
  9
$TEXTSIZE
 40
0.2
  9
$TRACEWID
 40
0.05
  9
$TEXTSTYLE
  7
STANDARD
  9
$CLAYER
  8
0
  9
$CELTYPE
  6
BYLAYER
  9
$CECOLOR
 62
   256
  9
$DIMSCALE
 40
1.0
  9
$DIMASZ
 40
0.18
  9
$DIMEXO
 40
0.0625
  9
$DIMDLI
 40
0.38
  9
$DIMRND
 40
0.0
  9
$DIMDLE
 40
0.0
  9
$DIMEXE
 40
0.18
  9
$DIMTP
 40
0.0
  9
$DIMTM
 40
0.0
  9
$DIMTXT
 40
0.18
  9
$DIMCEN
 40
0.09
  9
$DIMTSZ
 40
0.0
  9
$DIMTOL
 70
     0
  9
$DIMLIM
 70
     0
  9
$DIMTIH
 70
     1
  9
$DIMTOH
 70
     1
  9
$DIMSE1
 70
     0
  9
$DIMSE2
 70
     0
  9
$DIMTAD
 70
     0
  9
$DIMZIN
 70
     0
  9
$DIMBLK
  1

  9
$DIMASO
 70
     1
  9
$DIMSHO
 70
     1
  9
$DIMPOST
  1

  9
$DIMAPOST
  1

  9
$DIMALT
 70
     0
  9
$DIMALTD
 70
     2
  9
$DIMALTF
 40
25.4
  9
$DIMLFAC
 40
1.0
  9
$DIMTOFL
 70
     0
  9
$DIMTVP
 40
0.0
  9
$DIMTIX
 70
     0
  9
$DIMSOXD
 70
     0
  9
$DIMSAH
 70
     0
  9
$DIMBLK1
  1

  9
$DIMBLK2
  1

  9
$DIMSTYLE
  2
STANDARD
  9
$DIMCLRD
 70
     0
  9
$DIMCLRE
 70
     0
  9
$DIMCLRT
 70
     0
  9
$DIMTFAC
 40
1.0
  9
$DIMGAP
 40
0.09
  9
$LUNITS
 70
     2
  9
$LUPREC
 70
     4
  9
$SKETCHINC
 40
0.1
  9
$FILLETRAD
 40
0.5
  9
$AUNITS
 70
     0
  9
$AUPREC
 70
     0
  9
$MENU
  1
.
  9
$ELEVATION
 40
0.0
  9
$PELEVATION
 40
0.0
  9
$THICKNESS
 40
0.0
  9
$LIMCHECK
 70
     0
  9
$CHAMFERA
 40
0.0
  9
$CHAMFERB
 40
0.0
  9
$SKPOLY
 70
     0
  9
$TDCREATE
 40
2454910.5
  9
$TDUPDATE
 40
2459670.494999386
  9
$TDINDWG
 40
0.0000000116
  9
$TDUSRTIMER
 40
0.0000000116
  9
$USRTIMER
 70
     1
  9
$ANGBASE
 50
0.0
  9
$ANGDIR
 70
     0
  9
$PDMODE
 70
     0
  9
$PDSIZE
 40
0.0
  9
$PLINEWID
 40
0.0
  9
$COORDS
 70
     1
  9
$SPLFRAME
 70
     0
  9
$SPLINETYPE
 70
     6
  9
$SPLINESEGS
 70
     8
  9
$ATTDIA
 70
     0
  9
$ATTREQ
 70
     1
  9
$HANDLING
 70
     1
  9
$HANDSEED
  5
366
  9
$SURFTAB1
 70
     6
  9
$SURFTAB2
 70
     6
  9
$SURFTYPE
 70
     6
  9
$SURFU
 70
     6
  9
$SURFV
 70
     6
  9
$UCSNAME
  2

  9
$UCSORG
 10
0.0
 20
0.0
 30
0.0
  9
$UCSXDIR
 10
1.0
 20
0.0
 30
0.0
  9
$UCSYDIR
 10
0.0
 20
1.0
 30
0.0
  9
$PUCSNAME
  2

  9
$PUCSORG
 10
0.0
 20
0.0
 30
0.0
  9
$PUCSXDIR
 10
1.0
 20
0.0
 30
0.0
  9
$PUCSYDIR
 10
0.0
 20
1.0
 30
0.0
  9
$USERI1
 70
     0
  9
$USERI2
 70
     0
  9
$USERI3
 70
     0
  9
$USERI4
 70
     0
  9
$USERI5
 70
     0
  9
$USERR1
 40
0.0
  9
$USERR2
 40
0.0
  9
$USERR3
 40
0.0
  9
$USERR4
 40
0.0
  9
$USERR5
 40
0.0
  9
$WORLDVIEW
 70
     1
  9
$SHADEDGE
 70
     3
  9
$SHADEDIF
 70
    70
  9
$TILEMODE
 70
     1
  9
$MAXACTVP
 70
    64
  9
$PLIMCHECK
 70
     0
  9
$PEXTMIN
 10
1.000000000000000E+20
 20
1.000000000000000E+20
 30
1.000000000000000E+20
  9
$PEXTMAX
 10
-1.000000000000000E+20
 20
-1.000000000000000E+20
 30
-1.000000000000000E+20
  9
$PLIMMIN
 10
0.0
 20
0.0
  9
$PLIMMAX
 10
12.0
 20
9.0
  9
$UNITMODE
 70
     0
  9
$VISRETAIN
 70
     1
  9
$PLINEGEN
 70
     0
  9
$PSLTSCALE
 70
     1
  0
ENDSEC
  0
SECTION
  2
TABLES
  0
TABLE
  2
VPORT
 70
     1
  0
VPORT
  2
*ACTIVE
 70
     0
 10
0.0
 20
0.0
 11
1.0
 21
1.0
 12
10.42990654205607
 22
4.5
 13
0.0
 23
0.0
 14
0.5
 24
0.5
 15
0.5
 25
0.5
 16
0.0
 26
0.0
 36
1.0
 17
0.0
 27
0.0
 37
0.0
 40
9.0
 41
1.972972972850329
 42
50.0
 43
0.0
 44
0.0
 50
0.0
 51
0.0
 71
     0
 72
   100
 73
     1
 74
     3
 75
     0
 76
     0
 77
     0
 78
     0
  0
ENDTAB
  0
TABLE
  2
LTYPE
 70
     2
  0
LTYPE
  2
CONTINUOUS
 70
     0
  3
Solid line
 72
    65
 73
     0
 40
0.0
  0
LTYPE
  2
CONTINUOUS2
 70
     0
  3
Solid Line
 72
    65
 73
     0
 40
0.0
  0
ENDTAB
  0
TABLE
  2
LAYER
 70
     2
  0
LAYER
  2
0
 70
     0
 62
     7
  6
CONTINUOUS
  0
LAYER
  2
1
 70
     0
 62
     1
  6
CONTINUOUS
  0
ENDTAB
  0
TABLE
  2
STYLE
 70
     1
  0
STYLE
  2
STANDARD
 70
     0
 40
0.0
 41
1.0
 50
0.0
 71
     0
 42
0.2
  3
txt
  4

  0
ENDTAB
  0
TABLE
  2
VIEW
 70
     0
  0
ENDTAB
  0
TABLE
  2
UCS
 70
     0
  0
ENDTAB
  0
TABLE
  2
APPID
 70
     1
  0
APPID
  2
ACAD
 70
     0
  0
ENDTAB
  0
TABLE
  2
DIMSTYLE
 70
     1
  0
DIMSTYLE
  2
STANDARD
 70
     0
  3

  4

  5

  6

  7

 40
1.0
 41
0.18
 42
0.0625
 43
0.38
 44
0.18
 45
0.0
 46
0.0
 47
0.0
 48
0.0
140
0.18
141
0.09
142
0.0
143
25.4
144
1.0
145
0.0
146
1.0
147
0.09
 71
     0
 72
     0
 73
     1
 74
     1
 75
     0
 76
     0
 77
     0
 78
     0
170
     0
171
     2
172
     0
173
     0
174
     0
175
     0
176
     0
177
     0
178
     0
  0
ENDTAB
  0
ENDSEC
  0
SECTION
  2
BLOCKS
  0
BLOCK
  8
0
  2
$MODEL_SPACE
 70
     0
 10
0.0
 20
0.0
 30
0.0
  3
$MODEL_SPACE
  1

  0
ENDBLK
  5
21
  8
0
  0
BLOCK
 67
     1
  8
0
  2
$PAPER_SPACE
 70
     0
 10
0.0
 20
0.0
 30
0.0
  3
$PAPER_SPACE
  1

  0
ENDBLK
  5
1D
 67
     1
  8
0
  0
ENDSEC
  0
SECTION
  2
ENTITIES
  0
POLYLINE
  5
70
  8
1
 66
     1
 10
0.0
 20
0.0
 30
0.0
 70
     1
  0
VERTEX
  5
90
  8
1
 10
67.3032
 20
4.6608
 30
0.0
  0
VERTEX
  5
91
  8
1
 10
67.3032
 20
5.1792
 30
0.0
  0
VERTEX
  5
92
  8
1
 10
67.1048
 20
5.6582
 30
0.0
  0
VERTEX
  5
93
  8
1
 10
66.7382
 20
6.0248
 30
0.0
  0
VERTEX
  5
94
  8
1
 10
66.2592
 20
6.2232
 30
0.0
  0
VERTEX
  5
95
  8
1
 10
65.7408
 20
6.2232
 30
0.0
  0
VERTEX
  5
96
  8
1
 10
65.2618
 20
6.0248
 30
0.0
  0
VERTEX
  5
97
  8
1
 10
64.8952
 20
5.6582
 30
0.0
  0
VERTEX
  5
98
  8
1
 10
64.6968
 20
5.1792
 30
0.0
  0
VERTEX
  5
99
  8
1
 10
64.6968
 20
4.6608
 30
0.0
  0
VERTEX
  5
9A
  8
1
 10
64.8952
 20
4.1818
 30
0.0
  0
VERTEX
  5
9B
  8
1
 10
65.2618
 20
3.8152
 30
0.0
  0
VERTEX
  5
9C
  8
1
 10
65.7408
 20
3.6168
 30
0.0
  0
VERTEX
  5
9D
  8
1
 10
66.2592
 20
3.6168
 30
0.0
  0
VERTEX
  5
9E
  8
1
 10
66.7382
 20
3.8152
 30
0.0
  0
VERTEX
  5
9F
  8
1
 10
67.1048
 20
4.1818
 30
0.0
  0
SEQEND
  5
34D
  8
1
  0
POLYLINE
  5
71
  8
1
 66
     1
 10
0.0
 20
0.0
 30
0.0
 70
     1
  0
VERTEX
  5
A0
  8
1
 10
26.6032
 20
15.6811
 30
0.0
  0
VERTEX
  5
A1
  8
1
 10
26.6032
 20
16.3189
 30
0.0
  0
VERTEX
  5
A2
  8
1
 10
26.3591
 20
16.9081
 30
0.0
  0
VERTEX
  5
A3
  8
1
 10
25.9081
 20
17.3591
 30
0.0
  0
VERTEX
  5
A4
  8
1
 10
25.3189
 20
17.6032
 30
0.0
  0
VERTEX
  5
A5
  8
1
 10
24.6811
 20
17.6032
 30
0.0
  0
VERTEX
  5
A6
  8
1
 10
24.0919
 20
17.3591
 30
0.0
  0
VERTEX
  5
A7
  8
1
 10
23.6409
 20
16.9081
 30
0.0
  0
VERTEX
  5
A8
  8
1
 10
23.3968
 20
16.3189
 30
0.0
  0
VERTEX
  5
A9
  8
1
 10
23.3968
 20
15.6811
 30
0.0
  0
VERTEX
  5
AA
  8
1
 10
23.6409
 20
15.0919
 30
0.0
  0
VERTEX
  5
AB
  8
1
 10
24.0919
 20
14.6409
 30
0.0
  0
VERTEX
  5
AC
  8
1
 10
24.6811
 20
14.3968
 30
0.0
  0
VERTEX
  5
AD
  8
1
 10
25.3189
 20
14.3968
 30
0.0
  0
VERTEX
  5
AE
  8
1
 10
25.9081
 20
14.6409
 30
0.0
  0
VERTEX
  5
AF
  8
1
 10
26.3591
 20
15.0919
 30
0.0
  0
SEQEND
  5
34E
  8
1
  0
POLYLINE
  5
72
  8
1
 66
     1
 10
0.0
 20
0.0
 30
0.0
 70
     1
  0
VERTEX
  5
B0
  8
1
 10
51.6032
 20
15.6811
 30
0.0
  0
VERTEX
  5
B1
  8
1
 10
51.6032
 20
16.3189
 30
0.0
  0
VERTEX
  5
B2
  8
1
 10
51.3591
 20
16.9081
 30
0.0
  0
VERTEX
  5
B3
  8
1
 10
50.9081
 20
17.3591
 30
0.0
  0
VERTEX
  5
B4
  8
1
 10
50.3189
 20
17.6032
 30
0.0
  0
VERTEX
  5
B5
  8
1
 10
49.6811
 20
17.6032
 30
0.0
  0
VERTEX
  5
B6
  8
1
 10
49.0919
 20
17.3591
 30
0.0
  0
VERTEX
  5
B7
  8
1
 10
48.6409
 20
16.9081
 30
0.0
  0
VERTEX
  5
B8
  8
1
 10
48.3968
 20
16.3189
 30
0.0
  0
VERTEX
  5
B9
  8
1
 10
48.3968
 20
15.6811
 30
0.0
  0
VERTEX
  5
BA
  8
1
 10
48.6409
 20
15.0919
 30
0.0
  0
VERTEX
  5
BB
  8
1
 10
49.0919
 20
14.6409
 30
0.0
  0
VERTEX
  5
BC
  8
1
 10
49.6811
 20
14.3968
 30
0.0
  0
VERTEX
  5
BD
  8
1
 10
50.3189
 20
14.3968
 30
0.0
  0
VERTEX
  5
BE
  8
1
 10
50.9081
 20
14.6409
 30
0.0
  0
VERTEX
  5
BF
  8
1
 10
51.3591
 20
15.0919
 30
0.0
  0
SEQEND
  5
34F
  8
1
  0
POLYLINE
  5
73
  8
1
 66
     1
 10
0.0
 20
0.0
 30
0.0
 70
     1
  0
VERTEX
  5
C0
  8
1
 10
78.6032
 20
15.6811
 30
0.0
  0
VERTEX
  5
C1
  8
1
 10
78.6032
 20
16.3189
 30
0.0
  0
VERTEX
  5
C2
  8
1
 10
78.3591
 20
16.9081
 30
0.0
  0
VERTEX
  5
C3
  8
1
 10
77.9081
 20
17.3591
 30
0.0
  0
VERTEX
  5
C4
  8
1
 10
77.3189
 20
17.6032
 30
0.0
  0
VERTEX
  5
C5
  8
1
 10
76.6811
 20
17.6032
 30
0.0
  0
VERTEX
  5
C6
  8
1
 10
76.0919
 20
17.3591
 30
0.0
  0
VERTEX
  5
C7
  8
1
 10
75.6409
 20
16.9081
 30
0.0
  0
VERTEX
  5
C8
  8
1
 10
75.3968
 20
16.3189
 30
0.0
  0
VERTEX
  5
C9
  8
1
 10
75.3968
 20
15.6811
 30
0.0
  0
VERTEX
  5
CA
  8
1
 10
75.6409
 20
15.0919
 30
0.0
  0
VERTEX
  5
CB
  8
1
 10
76.0919
 20
14.6409
 30
0.0
  0
VERTEX
  5
CC
  8
1
 10
76.6811
 20
14.3968
 30
0.0
  0
VERTEX
  5
CD
  8
1
 10
77.3189
 20
14.3968
 30
0.0
  0
VERTEX
  5
CE
  8
1
 10
77.9081
 20
14.6409
 30
0.0
  0
VERTEX
  5
CF
  8
1
 10
78.3591
 20
15.0919
 30
0.0
  0
SEQEND
  5
350
  8
1
  0
POLYLINE
  5
74
  8
1
 66
     1
 10
0.0
 20
0.0
 30
0.0
 70
     1
  0
VERTEX
  5
D0
  8
1
 10
78.3032
 20
4.6608
 30
0.0
  0
VERTEX
  5
D1
  8
1
 10
78.3032
 20
5.1792
 30
0.0
  0
VERTEX
  5
D2
  8
1
 10
78.1048
 20
5.6582
 30
0.0
  0
VERTEX
  5
D3
  8
1
 10
77.7382
 20
6.0248
 30
0.0
  0
VERTEX
  5
D4
  8
1
 10
77.2592
 20
6.2232
 30
0.0
  0
VERTEX
  5
D5
  8
1
 10
76.7408
 20
6.2232
 30
0.0
  0
VERTEX
  5
D6
  8
1
 10
76.2618
 20
6.0248
 30
0.0
  0
VERTEX
  5
D7
  8
1
 10
75.8952
 20
5.6582
 30
0.0
  0
VERTEX
  5
D8
  8
1
 10
75.6968
 20
5.1792
 30
0.0
  0
VERTEX
  5
D9
  8
1
 10
75.6968
 20
4.6608
 30
0.0
  0
VERTEX
  5
DA
  8
1
 10
75.8952
 20
4.1818
 30
0.0
  0
VERTEX
  5
DB
  8
1
 10
76.2618
 20
3.8152
 30
0.0
  0
VERTEX
  5
DC
  8
1
 10
76.7408
 20
3.6168
 30
0.0
  0
VERTEX
  5
DD
  8
1
 10
77.2592
 20
3.6168
 30
0.0
  0
VERTEX
  5
DE
  8
1
 10
77.7382
 20
3.8152
 30
0.0
  0
VERTEX
  5
DF
  8
1
 10
78.1048
 20
4.1818
 30
0.0
  0
SEQEND
  5
351
  8
1
  0
POLYLINE
  5
75
  8
1
 66
     1
 10
0.0
 20
0.0
 30
0.0
 70
     1
  0
VERTEX
  5
E0
  8
1
 10
48.4254
 20
6.5416
 30
0.0
  0
VERTEX
  5
E1
  8
1
 10
48.2699
 20
6.3861
 30
0.0
  0
VERTEX
  5
E2
  8
1
 10
47.5933
 20
6.3861
 30
0.0
  0
VERTEX
  5
E3
  8
1
 10
47.3692
 20
6.2933
 30
0.0
  0
VERTEX
  5
E4
  8
1
 10
47.1977
 20
6.1218
 30
0.0
  0
VERTEX
  5
E5
  8
1
 10
46.4955
 20
5.4196
 30
0.0
  0
VERTEX
  5
E6
  8
1
 10
46.4027
 20
5.1955
 30
0.0
  0
VERTEX
  5
E7
  8
1
 10
46.4027
 20
5.1014
 30
0.0
  0
VERTEX
  5
E8
  8
1
 10
46.3923
 20
5.0911
 30
0.0
  0
VERTEX
  5
E9
  8
1
 10
46.3923
 20
4.5936
 30
0.0
  0
VERTEX
  5
EA
  8
1
 10
46.3922
 20
4.5921
 30
0.0
  0
VERTEX
  5
EB
  8
1
 10
46.3923
 20
4.5916
 30
0.0
  0
VERTEX
  5
EC
  8
1
 10
46.3923
 20
3.702
 30
0.0
  0
VERTEX
  5
ED
  8
1
 10
46.1699
 20
3.702
 30
0.0
  0
VERTEX
  5
EE
  8
1
 10
45.9318
 20
3.4639
 30
0.0
  0
VERTEX
  5
EF
  8
1
 10
45.9318
 20
2.7022
 30
0.0
  0
VERTEX
  5
F0
  8
1
 10
46.1699
 20
2.4642
 30
0.0
  0
VERTEX
  5
F1
  8
1
 10
46.5047
 20
2.4642
 30
0.0
  0
VERTEX
  5
F2
  8
1
 10
46.5047
 20
2.1232
 30
0.0
  0
VERTEX
  5
F3
  8
1
 10
43.8243
 20
2.1232
 30
0.0
  0
VERTEX
  5
F4
  8
1
 10
43.8258
 20
2.1247
 30
0.0
  0
VERTEX
  5
F5
  8
1
 10
43.8257
 20
2.1287
 30
0.0
  0
VERTEX
  5
F6
  8
1
 10
43.8274
 20
2.1305
 30
0.0
  0
VERTEX
  5
F7
  8
1
 10
43.8215
 20
2.3412
 30
0.0
  0
VERTEX
  5
F8
  8
1
 10
44.1389
 20
2.3412
 30
0.0
  0
VERTEX
  5
F9
  8
1
 10
44.3769
 20
2.5793
 30
0.0
  0
VERTEX
  5
FA
  8
1
 10
44.3769
 20
3.466
 30
0.0
  0
VERTEX
  5
FB
  8
1
 10
44.1389
 20
3.704
 30
0.0
  0
VERTEX
  5
FC
  8
1
 10
43.5544
 20
3.704
 30
0.0
  0
VERTEX
  5
FD
  8
1
 10
43.5544
 20
4.2461
 30
0.0
  0
VERTEX
  5
FE
  8
1
 10
43.6643
 20
4.3561
 30
0.0
  0
VERTEX
  5
FF
  8
1
 10
43.6643
 20
6.0927
 30
0.0
  0
VERTEX
  5
100
  8
1
 10
43.657
 20
6.1001
 30
0.0
  0
VERTEX
  5
101
  8
1
 10
43.6748
 20
10.2625
 30
0.0
  0
VERTEX
  5
102
  8
1
 10
43.6794
 20
10.372
 30
0.0
  0
VERTEX
  5
103
  8
1
 10
43.6753
 20
10.3833
 30
0.0
  0
VERTEX
  5
104
  8
1
 10
43.6754
 20
10.3954
 30
0.0
  0
VERTEX
  5
105
  8
1
 10
43.6339
 20
10.4968
 30
0.0
  0
VERTEX
  5
106
  8
1
 10
43.5962
 20
10.5998
 30
0.0
  0
VERTEX
  5
107
  8
1
 10
43.5881
 20
10.6087
 30
0.0
  0
VERTEX
  5
108
  8
1
 10
43.5835
 20
10.6198
 30
0.0
  0
VERTEX
  5
109
  8
1
 10
43.5063
 20
10.6977
 30
0.0
  0
VERTEX
  5
10A
  8
1
 10
42.9464
 20
11.3072
 30
0.0
  0
VERTEX
  5
10B
  8
1
 10
46.619
 20
11.2973
 30
0.0
  0
VERTEX
  5
10C
  8
1
 10
48.4254
 20
9.4909
 30
0.0
  0
SEQEND
  5
352
  8
1
  0
POLYLINE
  5
76
  8
1
 66
     1
 10
0.0
 20
0.0
 30
0.0
 70
     1
  0
VERTEX
  5
10D
  8
1
 10
48.3122
 20
7.72
 30
0.0
  0
VERTEX
  5
10E
  8
1
 10
48.3122
 20
8.4374
 30
0.0
  0
VERTEX
  5
10F
  8
1
 10
48.0377
 20
9.1001
 30
0.0
  0
VERTEX
  5
110
  8
1
 10
47.5304
 20
9.6074
 30
0.0
  0
VERTEX
  5
111
  8
1
 10
46.8677
 20
9.8819
 30
0.0
  0
VERTEX
  5
112
  8
1
 10
46.1503
 20
9.8819
 30
0.0
  0
VERTEX
  5
113
  8
1
 10
45.4876
 20
9.6074
 30
0.0
  0
VERTEX
  5
114
  8
1
 10
44.9803
 20
9.1001
 30
0.0
  0
VERTEX
  5
115
  8
1
 10
44.7058
 20
8.4374
 30
0.0
  0
VERTEX
  5
116
  8
1
 10
44.7058
 20
7.72
 30
0.0
  0
VERTEX
  5
117
  8
1
 10
44.9803
 20
7.0573
 30
0.0
  0
VERTEX
  5
118
  8
1
 10
45.4876
 20
6.55
 30
0.0
  0
VERTEX
  5
119
  8
1
 10
46.1503
 20
6.2755
 30
0.0
  0
VERTEX
  5
11A
  8
1
 10
46.8677
 20
6.2755
 30
0.0
  0
VERTEX
  5
11B
  8
1
 10
47.5304
 20
6.55
 30
0.0
  0
VERTEX
  5
11C
  8
1
 10
48.0377
 20
7.0573
 30
0.0
  0
SEQEND
  5
353
  8
1
  0
POLYLINE
  5
77
  8
1
 66
     1
 10
0.0
 20
0.0
 30
0.0
 70
     1
  0
VERTEX
  5
11D
  8
1
 10
56.8319
 20
11.2222
 30
0.0
  0
VERTEX
  5
11E
  8
1
 10
57.9501
 20
10.1041
 30
0.0
  0
VERTEX
  5
11F
  8
1
 10
57.9501
 20
4.1402
 30
0.0
  0
VERTEX
  5
120
  8
1
 10
57.8033
 20
3.9934
 30
0.0
  0
VERTEX
  5
121
  8
1
 10
57.8033
 20
2.9033
 30
0.0
  0
VERTEX
  5
122
  8
1
 10
56.3123
 20
2.9033
 30
0.0
  0
VERTEX
  5
123
  8
1
 10
56.0742
 20
2.6653
 30
0.0
  0
VERTEX
  5
124
  8
1
 10
56.0742
 20
2.1232
 30
0.0
  0
VERTEX
  5
125
  8
1
 10
48.2772
 20
2.1232
 30
0.0
  0
VERTEX
  5
126
  8
1
 10
48.299
 20
2.1449
 30
0.0
  0
VERTEX
  5
127
  8
1
 10
48.5132
 20
2.6673
 30
0.0
  0
VERTEX
  5
128
  8
1
 10
48.5082
 20
3.2319
 30
0.0
  0
VERTEX
  5
129
  8
1
 10
48.2847
 20
3.7504
 30
0.0
  0
VERTEX
  5
12A
  8
1
 10
48.218
 20
3.8145
 30
0.0
  0
VERTEX
  5
12B
  8
1
 10
48.218
 20
3.815
 30
0.0
  0
VERTEX
  5
12C
  8
1
 10
48.1862
 20
3.8451
 30
0.0
  0
VERTEX
  5
12D
  8
1
 10
48.0812
 20
3.946
 30
0.0
  0
VERTEX
  5
12E
  8
1
 10
47.9409
 20
4.0809
 30
0.0
  0
VERTEX
  5
12F
  8
1
 10
47.937
 20
4.0808
 30
0.0
  0
VERTEX
  5
130
  8
1
 10
47.9352
 20
4.0826
 30
0.0
  0
VERTEX
  5
131
  8
1
 10
47.7207
 20
4.0766
 30
0.0
  0
VERTEX
  5
132
  8
1
 10
47.6301
 20
4.0748
 30
0.0
  0
VERTEX
  5
133
  8
1
 10
47.6301
 20
4.7019
 30
0.0
  0
VERTEX
  5
134
  8
1
 10
47.6313
 20
4.7133
 30
0.0
  0
VERTEX
  5
135
  8
1
 10
47.6301
 20
4.7175
 30
0.0
  0
VERTEX
  5
136
  8
1
 10
47.6301
 20
4.83
 30
0.0
  0
VERTEX
  5
137
  8
1
 10
47.967
 20
5.1669
 30
0.0
  0
VERTEX
  5
138
  8
1
 10
48.6437
 20
5.1669
 30
0.0
  0
VERTEX
  5
139
  8
1
 10
48.8677
 20
5.2597
 30
0.0
  0
VERTEX
  5
13A
  8
1
 10
49.3803
 20
5.7723
 30
0.0
  0
VERTEX
  5
13B
  8
1
 10
49.5518
 20
5.9438
 30
0.0
  0
VERTEX
  5
13C
  8
1
 10
49.6446
 20
6.1678
 30
0.0
  0
VERTEX
  5
13D
  8
1
 10
49.6446
 20
9.8647
 30
0.0
  0
VERTEX
  5
13E
  8
1
 10
49.5518
 20
10.0887
 30
0.0
  0
VERTEX
  5
13F
  8
1
 10
48.4023
 20
11.2382
 30
0.0
  0
SEQEND
  5
354
  8
1
  0
POLYLINE
  5
78
  8
1
 66
     1
 10
0.0
 20
0.0
 30
0.0
 70
     1
  0
VERTEX
  5
140
  8
1
 10
56.3032
 20
4.6608
 30
0.0
  0
VERTEX
  5
141
  8
1
 10
56.3032
 20
5.1792
 30
0.0
  0
VERTEX
  5
142
  8
1
 10
56.1048
 20
5.6582
 30
0.0
  0
VERTEX
  5
143
  8
1
 10
55.7382
 20
6.0248
 30
0.0
  0
VERTEX
  5
144
  8
1
 10
55.2592
 20
6.2232
 30
0.0
  0
VERTEX
  5
145
  8
1
 10
54.7408
 20
6.2232
 30
0.0
  0
VERTEX
  5
146
  8
1
 10
54.2618
 20
6.0248
 30
0.0
  0
VERTEX
  5
147
  8
1
 10
53.8952
 20
5.6582
 30
0.0
  0
VERTEX
  5
148
  8
1
 10
53.6968
 20
5.1792
 30
0.0
  0
VERTEX
  5
149
  8
1
 10
53.6968
 20
4.6608
 30
0.0
  0
VERTEX
  5
14A
  8
1
 10
53.8952
 20
4.1818
 30
0.0
  0
VERTEX
  5
14B
  8
1
 10
54.2618
 20
3.8152
 30
0.0
  0
VERTEX
  5
14C
  8
1
 10
54.7408
 20
3.6168
 30
0.0
  0
VERTEX
  5
14D
  8
1
 10
55.2592
 20
3.6168
 30
0.0
  0
VERTEX
  5
14E
  8
1
 10
55.7382
 20
3.8152
 30
0.0
  0
VERTEX
  5
14F
  8
1
 10
56.1048
 20
4.1818
 30
0.0
  0
SEQEND
  5
355
  8
1
  0
POLYLINE
  5
79
  8
1
 66
     1
 10
0.0
 20
0.0
 30
0.0
 70
     1
  0
VERTEX
  5
150
  8
1
 10
48.3122
 20
-8.536
 30
0.0
  0
VERTEX
  5
151
  8
1
 10
48.3122
 20
-7.8186
 30
0.0
  0
VERTEX
  5
152
  8
1
 10
48.0377
 20
-7.1559
 30
0.0
  0
VERTEX
  5
153
  8
1
 10
47.5304
 20
-6.6486
 30
0.0
  0
VERTEX
  5
154
  8
1
 10
46.8677
 20
-6.3741
 30
0.0
  0
VERTEX
  5
155
  8
1
 10
46.1503
 20
-6.3741
 30
0.0
  0
VERTEX
  5
156
  8
1
 10
45.4876
 20
-6.6486
 30
0.0
  0
VERTEX
  5
157
  8
1
 10
44.9803
 20
-7.1559
 30
0.0
  0
VERTEX
  5
158
  8
1
 10
44.7058
 20
-7.8186
 30
0.0
  0
VERTEX
  5
159
  8
1
 10
44.7058
 20
-8.536
 30
0.0
  0
VERTEX
  5
15A
  8
1
 10
44.9803
 20
-9.1987
 30
0.0
  0
VERTEX
  5
15B
  8
1
 10
45.4876
 20
-9.706
 30
0.0
  0
VERTEX
  5
15C
  8
1
 10
46.1503
 20
-9.9805
 30
0.0
  0
VERTEX
  5
15D
  8
1
 10
46.8677
 20
-9.9805
 30
0.0
  0
VERTEX
  5
15E
  8
1
 10
47.5304
 20
-9.706
 30
0.0
  0
VERTEX
  5
15F
  8
1
 10
48.0377
 20
-9.1987
 30
0.0
  0
SEQEND
  5
356
  8
1
  0
POLYLINE
  5
7A
  8
1
 66
     1
 10
0.0
 20
0.0
 30
0.0
 70
     1
  0
VERTEX
  5
160
  8
1
 10
31.2942
 20
-8.536
 30
0.0
  0
VERTEX
  5
161
  8
1
 10
31.2942
 20
-7.8186
 30
0.0
  0
VERTEX
  5
162
  8
1
 10
31.0197
 20
-7.1559
 30
0.0
  0
VERTEX
  5
163
  8
1
 10
30.5124
 20
-6.6486
 30
0.0
  0
VERTEX
  5
164
  8
1
 10
29.8497
 20
-6.3741
 30
0.0
  0
VERTEX
  5
165
  8
1
 10
29.1323
 20
-6.3741
 30
0.0
  0
VERTEX
  5
166
  8
1
 10
28.4696
 20
-6.6486
 30
0.0
  0
VERTEX
  5
167
  8
1
 10
27.9623
 20
-7.1559
 30
0.0
  0
VERTEX
  5
168
  8
1
 10
27.6878
 20
-7.8186
 30
0.0
  0
VERTEX
  5
169
  8
1
 10
27.6878
 20
-8.536
 30
0.0
  0
VERTEX
  5
16A
  8
1
 10
27.9623
 20
-9.1987
 30
0.0
  0
VERTEX
  5
16B
  8
1
 10
28.4696
 20
-9.706
 30
0.0
  0
VERTEX
  5
16C
  8
1
 10
29.1323
 20
-9.9805
 30
0.0
  0
VERTEX
  5
16D
  8
1
 10
29.8497
 20
-9.9805
 30
0.0
  0
VERTEX
  5
16E
  8
1
 10
30.5124
 20
-9.706
 30
0.0
  0
VERTEX
  5
16F
  8
1
 10
31.0197
 20
-9.1987
 30
0.0
  0
SEQEND
  5
357
  8
1
  0
POLYLINE
  5
7B
  8
1
 66
     1
 10
0.0
 20
0.0
 30
0.0
 70
     1
  0
VERTEX
  5
170
  8
1
 10
31.2942
 20
7.72
 30
0.0
  0
VERTEX
  5
171
  8
1
 10
31.2942
 20
8.4374
 30
0.0
  0
VERTEX
  5
172
  8
1
 10
31.0197
 20
9.1001
 30
0.0
  0
VERTEX
  5
173
  8
1
 10
30.5124
 20
9.6074
 30
0.0
  0
VERTEX
  5
174
  8
1
 10
29.8497
 20
9.8819
 30
0.0
  0
VERTEX
  5
175
  8
1
 10
29.1323
 20
9.8819
 30
0.0
  0
VERTEX
  5
176
  8
1
 10
28.4696
 20
9.6074
 30
0.0
  0
VERTEX
  5
177
  8
1
 10
27.9623
 20
9.1001
 30
0.0
  0
VERTEX
  5
178
  8
1
 10
27.6878
 20
8.4374
 30
0.0
  0
VERTEX
  5
179
  8
1
 10
27.6878
 20
7.72
 30
0.0
  0
VERTEX
  5
17A
  8
1
 10
27.9623
 20
7.0573
 30
0.0
  0
VERTEX
  5
17B
  8
1
 10
28.4696
 20
6.55
 30
0.0
  0
VERTEX
  5
17C
  8
1
 10
29.1323
 20
6.2755
 30
0.0
  0
VERTEX
  5
17D
  8
1
 10
29.8497
 20
6.2755
 30
0.0
  0
VERTEX
  5
17E
  8
1
 10
30.5124
 20
6.55
 30
0.0
  0
VERTEX
  5
17F
  8
1
 10
31.0197
 20
7.0573
 30
0.0
  0
SEQEND
  5
358
  8
1
  0
POLYLINE
  5
7C
  8
1
 66
     1
 10
0.0
 20
0.0
 30
0.0
 70
     1
  0
VERTEX
  5
180
  8
1
 10
31.2532
 20
-0.3293
 30
0.0
  0
VERTEX
  5
181
  8
1
 10
31.2532
 20
0.1693
 30
0.0
  0
VERTEX
  5
182
  8
1
 10
31.0624
 20
0.6299
 30
0.0
  0
VERTEX
  5
183
  8
1
 10
30.7099
 20
0.9824
 30
0.0
  0
VERTEX
  5
184
  8
1
 10
30.2493
 20
1.1732
 30
0.0
  0
VERTEX
  5
185
  8
1
 10
29.7507
 20
1.1732
 30
0.0
  0
VERTEX
  5
186
  8
1
 10
29.2901
 20
0.9824
 30
0.0
  0
VERTEX
  5
187
  8
1
 10
28.9376
 20
0.6299
 30
0.0
  0
VERTEX
  5
188
  8
1
 10
28.7468
 20
0.1693
 30
0.0
  0
VERTEX
  5
189
  8
1
 10
28.7468
 20
-0.3293
 30
0.0
  0
VERTEX
  5
18A
  8
1
 10
28.9376
 20
-0.7899
 30
0.0
  0
VERTEX
  5
18B
  8
1
 10
29.2901
 20
-1.1424
 30
0.0
  0
VERTEX
  5
18C
  8
1
 10
29.7507
 20
-1.3332
 30
0.0
  0
VERTEX
  5
18D
  8
1
 10
30.2493
 20
-1.3332
 30
0.0
  0
VERTEX
  5
18E
  8
1
 10
30.7099
 20
-1.1424
 30
0.0
  0
VERTEX
  5
18F
  8
1
 10
31.0624
 20
-0.7899
 30
0.0
  0
SEQEND
  5
359
  8
1
  0
POLYLINE
  5
7D
  8
1
 66
     1
 10
0.0
 20
0.0
 30
0.0
 70
     1
  0
VERTEX
  5
190
  8
1
 10
67.3032
 20
-5.3392
 30
0.0
  0
VERTEX
  5
191
  8
1
 10
67.3032
 20
-4.8208
 30
0.0
  0
VERTEX
  5
192
  8
1
 10
67.1048
 20
-4.3418
 30
0.0
  0
VERTEX
  5
193
  8
1
 10
66.7382
 20
-3.9752
 30
0.0
  0
VERTEX
  5
194
  8
1
 10
66.2592
 20
-3.7768
 30
0.0
  0
VERTEX
  5
195
  8
1
 10
65.7408
 20
-3.7768
 30
0.0
  0
VERTEX
  5
196
  8
1
 10
65.2618
 20
-3.9752
 30
0.0
  0
VERTEX
  5
197
  8
1
 10
64.8952
 20
-4.3418
 30
0.0
  0
VERTEX
  5
198
  8
1
 10
64.6968
 20
-4.8208
 30
0.0
  0
VERTEX
  5
199
  8
1
 10
64.6968
 20
-5.3392
 30
0.0
  0
VERTEX
  5
19A
  8
1
 10
64.8952
 20
-5.8182
 30
0.0
  0
VERTEX
  5
19B
  8
1
 10
65.2618
 20
-6.1848
 30
0.0
  0
VERTEX
  5
19C
  8
1
 10
65.7408
 20
-6.3832
 30
0.0
  0
VERTEX
  5
19D
  8
1
 10
66.2592
 20
-6.3832
 30
0.0
  0
VERTEX
  5
19E
  8
1
 10
66.7382
 20
-6.1848
 30
0.0
  0
VERTEX
  5
19F
  8
1
 10
67.1048
 20
-5.8182
 30
0.0
  0
SEQEND
  5
35A
  8
1
  0
POLYLINE
  5
7E
  8
1
 66
     1
 10
0.0
 20
0.0
 30
0.0
 70
     1
  0
VERTEX
  5
1A0
  8
1
 10
56.3032
 20
-5.3392
 30
0.0
  0
VERTEX
  5
1A1
  8
1
 10
56.3032
 20
-4.8208
 30
0.0
  0
VERTEX
  5
1A2
  8
1
 10
56.1048
 20
-4.3418
 30
0.0
  0
VERTEX
  5
1A3
  8
1
 10
55.7382
 20
-3.9752
 30
0.0
  0
VERTEX
  5
1A4
  8
1
 10
55.2592
 20
-3.7768
 30
0.0
  0
VERTEX
  5
1A5
  8
1
 10
54.7408
 20
-3.7768
 30
0.0
  0
VERTEX
  5
1A6
  8
1
 10
54.2618
 20
-3.9752
 30
0.0
  0
VERTEX
  5
1A7
  8
1
 10
53.8952
 20
-4.3418
 30
0.0
  0
VERTEX
  5
1A8
  8
1
 10
53.6968
 20
-4.8208
 30
0.0
  0
VERTEX
  5
1A9
  8
1
 10
53.6968
 20
-5.3392
 30
0.0
  0
VERTEX
  5
1AA
  8
1
 10
53.8952
 20
-5.8182
 30
0.0
  0
VERTEX
  5
1AB
  8
1
 10
54.2618
 20
-6.1848
 30
0.0
  0
VERTEX
  5
1AC
  8
1
 10
54.7408
 20
-6.3832
 30
0.0
  0
VERTEX
  5
1AD
  8
1
 10
55.2592
 20
-6.3832
 30
0.0
  0
VERTEX
  5
1AE
  8
1
 10
55.7382
 20
-6.1848
 30
0.0
  0
VERTEX
  5
1AF
  8
1
 10
56.1048
 20
-5.8182
 30
0.0
  0
SEQEND
  5
35B
  8
1
  0
POLYLINE
  5
7F
  8
1
 66
     1
 10
0.0
 20
0.0
 30
0.0
 70
     1
  0
VERTEX
  5
1B0
  8
1
 10
39.3032
 20
-8.3392
 30
0.0
  0
VERTEX
  5
1B1
  8
1
 10
39.3032
 20
-7.8208
 30
0.0
  0
VERTEX
  5
1B2
  8
1
 10
39.1048
 20
-7.3418
 30
0.0
  0
VERTEX
  5
1B3
  8
1
 10
38.7382
 20
-6.9752
 30
0.0
  0
VERTEX
  5
1B4
  8
1
 10
38.2592
 20
-6.7768
 30
0.0
  0
VERTEX
  5
1B5
  8
1
 10
37.7408
 20
-6.7768
 30
0.0
  0
VERTEX
  5
1B6
  8
1
 10
37.2618
 20
-6.9752
 30
0.0
  0
VERTEX
  5
1B7
  8
1
 10
36.8952
 20
-7.3418
 30
0.0
  0
VERTEX
  5
1B8
  8
1
 10
36.6968
 20
-7.8208
 30
0.0
  0
VERTEX
  5
1B9
  8
1
 10
36.6968
 20
-8.3392
 30
0.0
  0
VERTEX
  5
1BA
  8
1
 10
36.8952
 20
-8.8182
 30
0.0
  0
VERTEX
  5
1BB
  8
1
 10
37.2618
 20
-9.1848
 30
0.0
  0
VERTEX
  5
1BC
  8
1
 10
37.7408
 20
-9.3832
 30
0.0
  0
VERTEX
  5
1BD
  8
1
 10
38.2592
 20
-9.3832
 30
0.0
  0
VERTEX
  5
1BE
  8
1
 10
38.7382
 20
-9.1848
 30
0.0
  0
VERTEX
  5
1BF
  8
1
 10
39.1048
 20
-8.8182
 30
0.0
  0
SEQEND
  5
35C
  8
1
  0
POLYLINE
  5
80
  8
1
 66
     1
 10
0.0
 20
0.0
 30
0.0
 70
     1
  0
VERTEX
  5
1C0
  8
1
 10
39.3032
 20
7.6608
 30
0.0
  0
VERTEX
  5
1C1
  8
1
 10
39.3032
 20
8.1792
 30
0.0
  0
VERTEX
  5
1C2
  8
1
 10
39.1048
 20
8.6582
 30
0.0
  0
VERTEX
  5
1C3
  8
1
 10
38.7382
 20
9.0248
 30
0.0
  0
VERTEX
  5
1C4
  8
1
 10
38.2592
 20
9.2232
 30
0.0
  0
VERTEX
  5
1C5
  8
1
 10
37.7408
 20
9.2232
 30
0.0
  0
VERTEX
  5
1C6
  8
1
 10
37.2618
 20
9.0248
 30
0.0
  0
VERTEX
  5
1C7
  8
1
 10
36.8952
 20
8.6582
 30
0.0
  0
VERTEX
  5
1C8
  8
1
 10
36.6968
 20
8.1792
 30
0.0
  0
VERTEX
  5
1C9
  8
1
 10
36.6968
 20
7.6608
 30
0.0
  0
VERTEX
  5
1CA
  8
1
 10
36.8952
 20
7.1818
 30
0.0
  0
VERTEX
  5
1CB
  8
1
 10
37.2618
 20
6.8152
 30
0.0
  0
VERTEX
  5
1CC
  8
1
 10
37.7408
 20
6.6168
 30
0.0
  0
VERTEX
  5
1CD
  8
1
 10
38.2592
 20
6.6168
 30
0.0
  0
VERTEX
  5
1CE
  8
1
 10
38.7382
 20
6.8152
 30
0.0
  0
VERTEX
  5
1CF
  8
1
 10
39.1048
 20
7.1818
 30
0.0
  0
SEQEND
  5
35D
  8
1
  0
POLYLINE
  5
81
  8
1
 66
     1
 10
0.0
 20
0.0
 30
0.0
 70
     1
  0
VERTEX
  5
1D0
  8
1
 10
77.6032
 20
-16.3189
 30
0.0
  0
VERTEX
  5
1D1
  8
1
 10
77.6032
 20
-15.6811
 30
0.0
  0
VERTEX
  5
1D2
  8
1
 10
77.3591
 20
-15.0919
 30
0.0
  0
VERTEX
  5
1D3
  8
1
 10
76.9081
 20
-14.6409
 30
0.0
  0
VERTEX
  5
1D4
  8
1
 10
76.3189
 20
-14.3968
 30
0.0
  0
VERTEX
  5
1D5
  8
1
 10
75.6811
 20
-14.3968
 30
0.0
  0
VERTEX
  5
1D6
  8
1
 10
75.0919
 20
-14.6409
 30
0.0
  0
VERTEX
  5
1D7
  8
1
 10
74.6409
 20
-15.0919
 30
0.0
  0
VERTEX
  5
1D8
  8
1
 10
74.3968
 20
-15.6811
 30
0.0
  0
VERTEX
  5
1D9
  8
1
 10
74.3968
 20
-16.3189
 30
0.0
  0
VERTEX
  5
1DA
  8
1
 10
74.6409
 20
-16.9081
 30
0.0
  0
VERTEX
  5
1DB
  8
1
 10
75.0919
 20
-17.3591
 30
0.0
  0
VERTEX
  5
1DC
  8
1
 10
75.6811
 20
-17.6032
 30
0.0
  0
VERTEX
  5
1DD
  8
1
 10
76.3189
 20
-17.6032
 30
0.0
  0
VERTEX
  5
1DE
  8
1
 10
76.9081
 20
-17.3591
 30
0.0
  0
VERTEX
  5
1DF
  8
1
 10
77.3591
 20
-16.9081
 30
0.0
  0
SEQEND
  5
35E
  8
1
  0
POLYLINE
  5
82
  8
1
 66
     1
 10
0.0
 20
0.0
 30
0.0
 70
     1
  0
VERTEX
  5
1E0
  8
1
 10
52.6032
 20
-16.3189
 30
0.0
  0
VERTEX
  5
1E1
  8
1
 10
52.6032
 20
-15.6811
 30
0.0
  0
VERTEX
  5
1E2
  8
1
 10
52.3591
 20
-15.0919
 30
0.0
  0
VERTEX
  5
1E3
  8
1
 10
51.9081
 20
-14.6409
 30
0.0
  0
VERTEX
  5
1E4
  8
1
 10
51.3189
 20
-14.3968
 30
0.0
  0
VERTEX
  5
1E5
  8
1
 10
50.6811
 20
-14.3968
 30
0.0
  0
VERTEX
  5
1E6
  8
1
 10
50.0919
 20
-14.6409
 30
0.0
  0
VERTEX
  5
1E7
  8
1
 10
49.6409
 20
-15.0919
 30
0.0
  0
VERTEX
  5
1E8
  8
1
 10
49.3968
 20
-15.6811
 30
0.0
  0
VERTEX
  5
1E9
  8
1
 10
49.3968
 20
-16.3189
 30
0.0
  0
VERTEX
  5
1EA
  8
1
 10
49.6409
 20
-16.9081
 30
0.0
  0
VERTEX
  5
1EB
  8
1
 10
50.0919
 20
-17.3591
 30
0.0
  0
VERTEX
  5
1EC
  8
1
 10
50.6811
 20
-17.6032
 30
0.0
  0
VERTEX
  5
1ED
  8
1
 10
51.3189
 20
-17.6032
 30
0.0
  0
VERTEX
  5
1EE
  8
1
 10
51.9081
 20
-17.3591
 30
0.0
  0
VERTEX
  5
1EF
  8
1
 10
52.3591
 20
-16.9081
 30
0.0
  0
SEQEND
  5
35F
  8
1
  0
POLYLINE
  5
83
  8
1
 66
     1
 10
0.0
 20
0.0
 30
0.0
 70
     1
  0
VERTEX
  5
1F0
  8
1
 10
26.6032
 20
-16.3189
 30
0.0
  0
VERTEX
  5
1F1
  8
1
 10
26.6032
 20
-15.6811
 30
0.0
  0
VERTEX
  5
1F2
  8
1
 10
26.3591
 20
-15.0919
 30
0.0
  0
VERTEX
  5
1F3
  8
1
 10
25.9081
 20
-14.6409
 30
0.0
  0
VERTEX
  5
1F4
  8
1
 10
25.3189
 20
-14.3968
 30
0.0
  0
VERTEX
  5
1F5
  8
1
 10
24.6811
 20
-14.3968
 30
0.0
  0
VERTEX
  5
1F6
  8
1
 10
24.0919
 20
-14.6409
 30
0.0
  0
VERTEX
  5
1F7
  8
1
 10
23.6409
 20
-15.0919
 30
0.0
  0
VERTEX
  5
1F8
  8
1
 10
23.3968
 20
-15.6811
 30
0.0
  0
VERTEX
  5
1F9
  8
1
 10
23.3968
 20
-16.3189
 30
0.0
  0
VERTEX
  5
1FA
  8
1
 10
23.6409
 20
-16.9081
 30
0.0
  0
VERTEX
  5
1FB
  8
1
 10
24.0919
 20
-17.3591
 30
0.0
  0
VERTEX
  5
1FC
  8
1
 10
24.6811
 20
-17.6032
 30
0.0
  0
VERTEX
  5
1FD
  8
1
 10
25.3189
 20
-17.6032
 30
0.0
  0
VERTEX
  5
1FE
  8
1
 10
25.9081
 20
-17.3591
 30
0.0
  0
VERTEX
  5
1FF
  8
1
 10
26.3591
 20
-16.9081
 30
0.0
  0
SEQEND
  5
360
  8
1
  0
POLYLINE
  5
84
  8
1
 66
     1
 10
0.0
 20
0.0
 30
0.0
 70
     1
  0
VERTEX
  5
200
  8
1
 10
78.3032
 20
-5.3392
 30
0.0
  0
VERTEX
  5
201
  8
1
 10
78.3032
 20
-4.8208
 30
0.0
  0
VERTEX
  5
202
  8
1
 10
78.1048
 20
-4.3418
 30
0.0
  0
VERTEX
  5
203
  8
1
 10
77.7382
 20
-3.9752
 30
0.0
  0
VERTEX
  5
204
  8
1
 10
77.2592
 20
-3.7768
 30
0.0
  0
VERTEX
  5
205
  8
1
 10
76.7408
 20
-3.7768
 30
0.0
  0
VERTEX
  5
206
  8
1
 10
76.2618
 20
-3.9752
 30
0.0
  0
VERTEX
  5
207
  8
1
 10
75.8952
 20
-4.3418
 30
0.0
  0
VERTEX
  5
208
  8
1
 10
75.6968
 20
-4.8208
 30
0.0
  0
VERTEX
  5
209
  8
1
 10
75.6968
 20
-5.3392
 30
0.0
  0
VERTEX
  5
20A
  8
1
 10
75.8952
 20
-5.8182
 30
0.0
  0
VERTEX
  5
20B
  8
1
 10
76.2618
 20
-6.1848
 30
0.0
  0
VERTEX
  5
20C
  8
1
 10
76.7408
 20
-6.3832
 30
0.0
  0
VERTEX
  5
20D
  8
1
 10
77.2592
 20
-6.3832
 30
0.0
  0
VERTEX
  5
20E
  8
1
 10
77.7382
 20
-6.1848
 30
0.0
  0
VERTEX
  5
20F
  8
1
 10
78.1048
 20
-5.8182
 30
0.0
  0
SEQEND
  5
361
  8
1
  0
POLYLINE
  5
85
  8
1
 66
     1
 10
0.0
 20
0.0
 30
0.0
 70
     1
  0
VERTEX
  5
210
  8
1
 10
5.6032
 20
15.6811
 30
0.0
  0
VERTEX
  5
211
  8
1
 10
5.6032
 20
16.3189
 30
0.0
  0
VERTEX
  5
212
  8
1
 10
5.3591
 20
16.9081
 30
0.0
  0
VERTEX
  5
213
  8
1
 10
4.9081
 20
17.3591
 30
0.0
  0
VERTEX
  5
214
  8
1
 10
4.3189
 20
17.6032
 30
0.0
  0
VERTEX
  5
215
  8
1
 10
3.6811
 20
17.6032
 30
0.0
  0
VERTEX
  5
216
  8
1
 10
3.0919
 20
17.3591
 30
0.0
  0
VERTEX
  5
217
  8
1
 10
2.6409
 20
16.9081
 30
0.0
  0
VERTEX
  5
218
  8
1
 10
2.3968
 20
16.3189
 30
0.0
  0
VERTEX
  5
219
  8
1
 10
2.3968
 20
15.6811
 30
0.0
  0
VERTEX
  5
21A
  8
1
 10
2.6409
 20
15.0919
 30
0.0
  0
VERTEX
  5
21B
  8
1
 10
3.0919
 20
14.6409
 30
0.0
  0
VERTEX
  5
21C
  8
1
 10
3.6811
 20
14.3968
 30
0.0
  0
VERTEX
  5
21D
  8
1
 10
4.3189
 20
14.3968
 30
0.0
  0
VERTEX
  5
21E
  8
1
 10
4.9081
 20
14.6409
 30
0.0
  0
VERTEX
  5
21F
  8
1
 10
5.3591
 20
15.0919
 30
0.0
  0
SEQEND
  5
362
  8
1
  0
POLYLINE
  5
86
  8
1
 66
     1
 10
0.0
 20
0.0
 30
0.0
 70
     1
  0
VERTEX
  5
220
  8
1
 10
5.6032
 20
-0.3189
 30
0.0
  0
VERTEX
  5
221
  8
1
 10
5.6032
 20
0.3189
 30
0.0
  0
VERTEX
  5
222
  8
1
 10
5.3591
 20
0.9081
 30
0.0
  0
VERTEX
  5
223
  8
1
 10
4.9081
 20
1.3591
 30
0.0
  0
VERTEX
  5
224
  8
1
 10
4.3189
 20
1.6032
 30
0.0
  0
VERTEX
  5
225
  8
1
 10
3.6811
 20
1.6032
 30
0.0
  0
VERTEX
  5
226
  8
1
 10
3.0919
 20
1.3591
 30
0.0
  0
VERTEX
  5
227
  8
1
 10
2.6409
 20
0.9081
 30
0.0
  0
VERTEX
  5
228
  8
1
 10
2.3968
 20
0.3189
 30
0.0
  0
VERTEX
  5
229
  8
1
 10
2.3968
 20
-0.3189
 30
0.0
  0
VERTEX
  5
22A
  8
1
 10
2.6409
 20
-0.9081
 30
0.0
  0
VERTEX
  5
22B
  8
1
 10
3.0919
 20
-1.3591
 30
0.0
  0
VERTEX
  5
22C
  8
1
 10
3.6811
 20
-1.6032
 30
0.0
  0
VERTEX
  5
22D
  8
1
 10
4.3189
 20
-1.6032
 30
0.0
  0
VERTEX
  5
22E
  8
1
 10
4.9081
 20
-1.3591
 30
0.0
  0
VERTEX
  5
22F
  8
1
 10
5.3591
 20
-0.9081
 30
0.0
  0
SEQEND
  5
363
  8
1
  0
POLYLINE
  5
87
  8
1
 66
     1
 10
0.0
 20
0.0
 30
0.0
 70
     1
  0
VERTEX
  5
230
  8
1
 10
5.6032
 20
-16.3189
 30
0.0
  0
VERTEX
  5
231
  8
1
 10
5.6032
 20
-15.6811
 30
0.0
  0
VERTEX
  5
232
  8
1
 10
5.3591
 20
-15.0919
 30
0.0
  0
VERTEX
  5
233
  8
1
 10
4.9081
 20
-14.6409
 30
0.0
  0
VERTEX
  5
234
  8
1
 10
4.3189
 20
-14.3968
 30
0.0
  0
VERTEX
  5
235
  8
1
 10
3.6811
 20
-14.3968
 30
0.0
  0
VERTEX
  5
236
  8
1
 10
3.0919
 20
-14.6409
 30
0.0
  0
VERTEX
  5
237
  8
1
 10
2.6409
 20
-15.0919
 30
0.0
  0
VERTEX
  5
238
  8
1
 10
2.3968
 20
-15.6811
 30
0.0
  0
VERTEX
  5
239
  8
1
 10
2.3968
 20
-16.3189
 30
0.0
  0
VERTEX
  5
23A
  8
1
 10
2.6409
 20
-16.9081
 30
0.0
  0
VERTEX
  5
23B
  8
1
 10
3.0919
 20
-17.3591
 30
0.0
  0
VERTEX
  5
23C
  8
1
 10
3.6811
 20
-17.6032
 30
0.0
  0
VERTEX
  5
23D
  8
1
 10
4.3189
 20
-17.6032
 30
0.0
  0
VERTEX
  5
23E
  8
1
 10
4.9081
 20
-17.3591
 30
0.0
  0
VERTEX
  5
23F
  8
1
 10
5.3591
 20
-16.9081
 30
0.0
  0
SEQEND
  5
364
  8
1
  0
POLYLINE
  5
88
  8
1
 66
     1
 10
0.0
 20
0.0
 30
0.0
 70
     1
  0
VERTEX
  5
240
  8
1
 10
80.0
 20
2.1232
 30
0.0
  0
VERTEX
  5
241
  8
1
 10
60.1411
 20
2.1232
 30
0.0
  0
VERTEX
  5
242
  8
1
 10
60.1411
 20
2.5993
 30
0.0
  0
VERTEX
  5
243
  8
1
 10
59.903
 20
2.8374
 30
0.0
  0
VERTEX
  5
244
  8
1
 10
59.3161
 20
2.8374
 30
0.0
  0
VERTEX
  5
245
  8
1
 10
59.3161
 20
3.9934
 30
0.0
  0
VERTEX
  5
246
  8
1
 10
59.1693
 20
4.1402
 30
0.0
  0
VERTEX
  5
247
  8
1
 10
59.1693
 20
10.4778
 30
0.0
  0
VERTEX
  5
248
  8
1
 10
59.0765
 20
10.7019
 30
0.0
  0
VERTEX
  5
249
  8
1
 10
58.905
 20
10.8734
 30
0.0
  0
VERTEX
  5
24A
  8
1
 10
57.5172
 20
12.2611
 30
0.0
  0
VERTEX
  5
24B
  8
1
 10
57.4312
 20
12.3475
 30
0.0
  0
VERTEX
  5
24C
  8
1
 10
57.4307
 20
12.3477
 30
0.0
  0
VERTEX
  5
24D
  8
1
 10
57.4302
 20
12.3481
 30
0.0
  0
VERTEX
  5
24E
  8
1
 10
57.3194
 20
12.3941
 30
0.0
  0
VERTEX
  5
24F
  8
1
 10
57.2073
 20
12.4407
 30
0.0
  0
VERTEX
  5
250
  8
1
 10
57.2067
 20
12.4407
 30
0.0
  0
VERTEX
  5
251
  8
1
 10
57.2062
 20
12.441
 30
0.0
  0
VERTEX
  5
252
  8
1
 10
57.0861
 20
12.441
 30
0.0
  0
VERTEX
  5
253
  8
1
 10
48.654
 20
12.457
 30
0.0
  0
VERTEX
  5
254
  8
1
 10
48.0151
 20
13.0959
 30
0.0
  0
VERTEX
  5
255
  8
1
 10
47.8436
 20
13.2674
 30
0.0
  0
VERTEX
  5
256
  8
1
 10
47.6195
 20
13.3602
 30
0.0
  0
VERTEX
  5
257
  8
1
 10
27.4449
 20
13.3602
 30
0.0
  0
VERTEX
  5
258
  8
1
 10
27.2209
 20
13.2674
 30
0.0
  0
VERTEX
  5
259
  8
1
 10
26.3237
 20
12.3702
 30
0.0
  0
VERTEX
  5
25A
  8
1
 10
23.6075
 20
12.372
 30
0.0
  0
VERTEX
  5
25B
  8
1
 10
23.423
 20
12.5564
 30
0.0
  0
VERTEX
  5
25C
  8
1
 10
23.1074
 20
12.9413
 30
0.0
  0
VERTEX
  5
25D
  8
1
 10
23.0937
 20
12.9731
 30
0.0
  0
VERTEX
  5
25E
  8
1
 10
23.0311
 20
13.0343
 30
0.0
  0
VERTEX
  5
25F
  8
1
 10
22.9755
 20
13.102
 30
0.0
  0
VERTEX
  5
260
  8
1
 10
22.945
 20
13.1183
 30
0.0
  0
VERTEX
  5
261
  8
1
 10
22.9202
 20
13.1425
 30
0.0
  0
VERTEX
  5
262
  8
1
 10
22.8389
 20
13.1751
 30
0.0
  0
VERTEX
  5
263
  8
1
 10
22.7648
 20
13.2147
 30
0.0
  0
VERTEX
  5
264
  8
1
 10
22.0
 20
13.9795
 30
0.0
  0
VERTEX
  5
265
  8
1
 10
22.0
 20
14.0
 30
0.0
  0
VERTEX
  5
266
  8
1
 10
6.0
 20
14.0
 30
0.0
  0
VERTEX
  5
267
  8
1
 10
6.0
 20
-14.0
 30
0.0
  0
VERTEX
  5
268
  8
1
 10
22.0
 20
-14.0
 30
0.0
  0
VERTEX
  5
269
  8
1
 10
26.0
 20
-10.0
 30
0.0
  0
VERTEX
  5
26A
  8
1
 10
26.0
 20
7.525
 30
0.0
  0
VERTEX
  5
26B
  8
1
 10
28.8067
 20
10.5252
 30
0.0
  0
VERTEX
  5
26C
  8
1
 10
42.0395
 20
10.4923
 30
0.0
  0
VERTEX
  5
26D
  8
1
 10
42.4546
 20
10.0404
 30
0.0
  0
VERTEX
  5
26E
  8
1
 10
42.4378
 20
6.104
 30
0.0
  0
VERTEX
  5
26F
  8
1
 10
42.4265
 20
6.0927
 30
0.0
  0
VERTEX
  5
270
  8
1
 10
42.4265
 20
4.3561
 30
0.0
  0
VERTEX
  5
271
  8
1
 10
42.5616
 20
4.2211
 30
0.0
  0
VERTEX
  5
272
  8
1
 10
42.5616
 20
3.5118
 30
0.0
  0
VERTEX
  5
273
  8
1
 10
41.6406
 20
3.5265
 30
0.0
  0
VERTEX
  5
274
  8
1
 10
41.4358
 20
3.53
 30
0.0
  0
VERTEX
  5
275
  8
1
 10
41.4355
 20
3.5298
 30
0.0
  0
VERTEX
  5
276
  8
1
 10
41.4352
 20
3.5298
 30
0.0
  0
VERTEX
  5
277
  8
1
 10
41.2878
 20
3.3871
 30
0.0
  0
VERTEX
  5
278
  8
1
 10
41.14
 20
3.2443
 30
0.0
  0
VERTEX
  5
279
  8
1
 10
41.14
 20
3.2439
 30
0.0
  0
VERTEX
  5
27A
  8
1
 10
41.1398
 20
3.2437
 30
0.0
  0
VERTEX
  5
27B
  8
1
 10
41.1365
 20
3.0381
 30
0.0
  0
VERTEX
  5
27C
  8
1
 10
41.1123
 20
1.6218
 30
0.0
  0
VERTEX
  5
27D
  8
1
 10
40.4136
 20
1.6218
 30
0.0
  0
VERTEX
  5
27E
  8
1
 10
40.4136
 20
4.3155
 30
0.0
  0
VERTEX
  5
27F
  8
1
 10
40.4232
 20
4.3271
 30
0.0
  0
VERTEX
  5
280
  8
1
 10
40.4136
 20
4.424
 30
0.0
  0
VERTEX
  5
281
  8
1
 10
40.4136
 20
4.5214
 30
0.0
  0
VERTEX
  5
282
  8
1
 10
40.4079
 20
4.5271
 30
0.0
  0
VERTEX
  5
283
  8
1
 10
40.4181
 20
4.5462
 30
0.0
  0
VERTEX
  5
284
  8
1
 10
40.3937
 20
4.6268
 30
0.0
  0
VERTEX
  5
285
  8
1
 10
40.3854
 20
4.7106
 30
0.0
  0
VERTEX
  5
286
  8
1
 10
40.3625
 20
4.7293
 30
0.0
  0
VERTEX
  5
287
  8
1
 10
40.3618
 20
4.7318
 30
0.0
  0
VERTEX
  5
288
  8
1
 10
40.3704
 20
4.7601
 30
0.0
  0
VERTEX
  5
289
  8
1
 10
40.3307
 20
4.8344
 30
0.0
  0
VERTEX
  5
28A
  8
1
 10
40.3062
 20
4.915
 30
0.0
  0
VERTEX
  5
28B
  8
1
 10
40.2802
 20
4.9289
 30
0.0
  0
VERTEX
  5
28C
  8
1
 10
40.2789
 20
4.9312
 30
0.0
  0
VERTEX
  5
28D
  8
1
 10
40.2818
 20
4.9606
 30
0.0
  0
VERTEX
  5
28E
  8
1
 10
40.2284
 20
5.0257
 30
0.0
  0
VERTEX
  5
28F
  8
1
 10
40.1887
 20
5.1
 30
0.0
  0
VERTEX
  5
290
  8
1
 10
40.1604
 20
5.1085
 30
0.0
  0
VERTEX
  5
291
  8
1
 10
40.1588
 20
5.1105
 30
0.0
  0
VERTEX
  5
292
  8
1
 10
40.1559
 20
5.14
 30
0.0
  0
VERTEX
  5
293
  8
1
 10
40.0908
 20
5.1934
 30
0.0
  0
VERTEX
  5
294
  8
1
 10
40.0374
 20
5.2585
 30
0.0
  0
VERTEX
  5
295
  8
1
 10
40.008
 20
5.2614
 30
0.0
  0
VERTEX
  5
296
  8
1
 10
40.0059
 20
5.263
 30
0.0
  0
VERTEX
  5
297
  8
1
 10
39.9974
 20
5.2913
 30
0.0
  0
VERTEX
  5
298
  8
1
 10
39.9231
 20
5.331
 30
0.0
  0
VERTEX
  5
299
  8
1
 10
39.858
 20
5.3844
 30
0.0
  0
VERTEX
  5
29A
  8
1
 10
39.8286
 20
5.3815
 30
0.0
  0
VERTEX
  5
29B
  8
1
 10
39.8263
 20
5.3827
 30
0.0
  0
VERTEX
  5
29C
  8
1
 10
39.8124
 20
5.4088
 30
0.0
  0
VERTEX
  5
29D
  8
1
 10
39.7318
 20
5.4333
 30
0.0
  0
VERTEX
  5
29E
  8
1
 10
39.6575
 20
5.473
 30
0.0
  0
VERTEX
  5
29F
  8
1
 10
39.6292
 20
5.4644
 30
0.0
  0
VERTEX
  5
2A0
  8
1
 10
39.6268
 20
5.4651
 30
0.0
  0
VERTEX
  5
2A1
  8
1
 10
39.608
 20
5.488
 30
0.0
  0
VERTEX
  5
2A2
  8
1
 10
39.5242
 20
5.4962
 30
0.0
  0
VERTEX
  5
2A3
  8
1
 10
39.4436
 20
5.5207
 30
0.0
  0
VERTEX
  5
2A4
  8
1
 10
39.4245
 20
5.5105
 30
0.0
  0
VERTEX
  5
2A5
  8
1
 10
39.4188
 20
5.5162
 30
0.0
  0
VERTEX
  5
2A6
  8
1
 10
39.3214
 20
5.5162
 30
0.0
  0
VERTEX
  5
2A7
  8
1
 10
39.2245
 20
5.5258
 30
0.0
  0
VERTEX
  5
2A8
  8
1
 10
39.2129
 20
5.5162
 30
0.0
  0
VERTEX
  5
2A9
  8
1
 10
39.0778
 20
5.5162
 30
0.0
  0
VERTEX
  5
2AA
  8
1
 10
38.3614
 20
5.5346
 30
0.0
  0
VERTEX
  5
2AB
  8
1
 10
38.3452
 20
5.5481
 30
0.0
  0
VERTEX
  5
2AC
  8
1
 10
38.3333
 20
5.5471
 30
0.0
  0
VERTEX
  5
2AD
  8
1
 10
38.3202
 20
5.5567
 30
0.0
  0
VERTEX
  5
2AE
  8
1
 10
38.2978
 20
5.5532
 30
0.0
  0
VERTEX
  5
2AF
  8
1
 10
38.2777
 20
5.5637
 30
0.0
  0
VERTEX
  5
2B0
  8
1
 10
38.198
 20
5.5387
 30
0.0
  0
VERTEX
  5
2B1
  8
1
 10
38.1564
 20
5.5398
 30
0.0
  0
VERTEX
  5
2B2
  8
1
 10
38.1469
 20
5.5308
 30
0.0
  0
VERTEX
  5
2B3
  8
1
 10
38.1304
 20
5.5293
 30
0.0
  0
VERTEX
  5
2B4
  8
1
 10
38.1075
 20
5.5425
 30
0.0
  0
VERTEX
  5
2B5
  8
1
 10
38.0234
 20
5.52
 30
0.0
  0
VERTEX
  5
2B6
  8
1
 10
37.9365
 20
5.5124
 30
0.0
  0
VERTEX
  5
2B7
  8
1
 10
37.9196
 20
5.4922
 30
0.0
  0
VERTEX
  5
2B8
  8
1
 10
37.8992
 20
5.4867
 30
0.0
  0
VERTEX
  5
2B9
  8
1
 10
37.8744
 20
5.4957
 30
0.0
  0
VERTEX
  5
2BA
  8
1
 10
37.7954
 20
5.4589
 30
0.0
  0
VERTEX
  5
2BB
  8
1
 10
37.7112
 20
5.4363
 30
0.0
  0
VERTEX
  5
2BC
  8
1
 10
37.6981
 20
5.4135
 30
0.0
  0
VERTEX
  5
2BD
  8
1
 10
37.6789
 20
5.4046
 30
0.0
  0
VERTEX
  5
2BE
  8
1
 10
37.6529
 20
5.4091
 30
0.0
  0
VERTEX
  5
2BF
  8
1
 10
37.5816
 20
5.3592
 30
0.0
  0
VERTEX
  5
2C0
  8
1
 10
37.5026
 20
5.3223
 30
0.0
  0
VERTEX
  5
2C1
  8
1
 10
37.4935
 20
5.2976
 30
0.0
  0
VERTEX
  5
2C2
  8
1
 10
37.4762
 20
5.2854
 30
0.0
  0
VERTEX
  5
2C3
  8
1
 10
37.4499
 20
5.2854
 30
0.0
  0
VERTEX
  5
2C4
  8
1
 10
37.3882
 20
5.2238
 30
0.0
  0
VERTEX
  5
2C5
  8
1
 10
37.3169
 20
5.1738
 30
0.0
  0
VERTEX
  5
2C6
  8
1
 10
37.3123
 20
5.1479
 30
0.0
  0
VERTEX
  5
2C7
  8
1
 10
37.2973
 20
5.1329
 30
0.0
  0
VERTEX
  5
2C8
  8
1
 10
37.2714
 20
5.1283
 30
0.0
  0
VERTEX
  5
2C9
  8
1
 10
37.2214
 20
5.057
 30
0.0
  0
VERTEX
  5
2CA
  8
1
 10
37.1598
 20
4.9953
 30
0.0
  0
VERTEX
  5
2CB
  8
1
 10
37.1598
 20
4.969
 30
0.0
  0
VERTEX
  5
2CC
  8
1
 10
37.1476
 20
4.9516
 30
0.0
  0
VERTEX
  5
2CD
  8
1
 10
37.1229
 20
4.9426
 30
0.0
  0
VERTEX
  5
2CE
  8
1
 10
37.086
 20
4.8636
 30
0.0
  0
VERTEX
  5
2CF
  8
1
 10
37.0361
 20
4.7923
 30
0.0
  0
VERTEX
  5
2D0
  8
1
 10
37.0406
 20
4.7663
 30
0.0
  0
VERTEX
  5
2D1
  8
1
 10
37.0317
 20
4.7471
 30
0.0
  0
VERTEX
  5
2D2
  8
1
 10
37.0089
 20
4.734
 30
0.0
  0
VERTEX
  5
2D3
  8
1
 10
36.9863
 20
4.6498
 30
0.0
  0
VERTEX
  5
2D4
  8
1
 10
36.9495
 20
4.5708
 30
0.0
  0
VERTEX
  5
2D5
  8
1
 10
36.9585
 20
4.546
 30
0.0
  0
VERTEX
  5
2D6
  8
1
 10
36.953
 20
4.5256
 30
0.0
  0
VERTEX
  5
2D7
  8
1
 10
36.9328
 20
4.5087
 30
0.0
  0
VERTEX
  5
2D8
  8
1
 10
36.9252
 20
4.4218
 30
0.0
  0
VERTEX
  5
2D9
  8
1
 10
36.9027
 20
4.3377
 30
0.0
  0
VERTEX
  5
2DA
  8
1
 10
36.9159
 20
4.3148
 30
0.0
  0
VERTEX
  5
2DB
  8
1
 10
36.9152
 20
4.3067
 30
0.0
  0
VERTEX
  5
2DC
  8
1
 10
36.9057
 20
4.2972
 30
0.0
  0
VERTEX
  5
2DD
  8
1
 10
36.9057
 20
4.1984
 30
0.0
  0
VERTEX
  5
2DE
  8
1
 10
36.8971
 20
4.1
 30
0.0
  0
VERTEX
  5
2DF
  8
1
 10
36.9057
 20
4.0897
 30
0.0
  0
VERTEX
  5
2E0
  8
1
 10
36.9057
 20
-4.3569
 30
0.0
  0
VERTEX
  5
2E1
  8
1
 10
36.8971
 20
-4.3672
 30
0.0
  0
VERTEX
  5
2E2
  8
1
 10
36.9057
 20
-4.4656
 30
0.0
  0
VERTEX
  5
2E3
  8
1
 10
36.9057
 20
-4.5644
 30
0.0
  0
VERTEX
  5
2E4
  8
1
 10
36.9081
 20
-4.5669
 30
0.0
  0
VERTEX
  5
2E5
  8
1
 10
36.9005
 20
-4.5801
 30
0.0
  0
VERTEX
  5
2E6
  8
1
 10
36.9231
 20
-4.6643
 30
0.0
  0
VERTEX
  5
2E7
  8
1
 10
36.9306
 20
-4.7511
 30
0.0
  0
VERTEX
  5
2E8
  8
1
 10
36.9491
 20
-4.7665
 30
0.0
  0
VERTEX
  5
2E9
  8
1
 10
36.9409
 20
-4.7892
 30
0.0
  0
VERTEX
  5
2EA
  8
1
 10
36.9777
 20
-4.8682
 30
0.0
  0
VERTEX
  5
2EB
  8
1
 10
37.0002
 20
-4.9523
 30
0.0
  0
VERTEX
  5
2EC
  8
1
 10
37.0211
 20
-4.9644
 30
0.0
  0
VERTEX
  5
2ED
  8
1
 10
37.0169
 20
-4.9881
 30
0.0
  0
VERTEX
  5
2EE
  8
1
 10
37.0669
 20
-5.0595
 30
0.0
  0
VERTEX
  5
2EF
  8
1
 10
37.1037
 20
-5.1385
 30
0.0
  0
VERTEX
  5
2F0
  8
1
 10
37.1264
 20
-5.1467
 30
0.0
  0
VERTEX
  5
2F1
  8
1
 10
37.1264
 20
-5.1708
 30
0.0
  0
VERTEX
  5
2F2
  8
1
 10
37.188
 20
-5.2324
 30
0.0
  0
VERTEX
  5
2F3
  8
1
 10
37.238
 20
-5.3038
 30
0.0
  0
VERTEX
  5
2F4
  8
1
 10
37.2617
 20
-5.308
 30
0.0
  0
VERTEX
  5
2F5
  8
1
 10
37.2659
 20
-5.3317
 30
0.0
  0
VERTEX
  5
2F6
  8
1
 10
37.3373
 20
-5.3817
 30
0.0
  0
VERTEX
  5
2F7
  8
1
 10
37.3989
 20
-5.4433
 30
0.0
  0
VERTEX
  5
2F8
  8
1
 10
37.423
 20
-5.4433
 30
0.0
  0
VERTEX
  5
2F9
  8
1
 10
37.4312
 20
-5.4659
 30
0.0
  0
VERTEX
  5
2FA
  8
1
 10
37.5102
 20
-5.5028
 30
0.0
  0
VERTEX
  5
2FB
  8
1
 10
37.5816
 20
-5.5527
 30
0.0
  0
VERTEX
  5
2FC
  8
1
 10
37.6053
 20
-5.5485
 30
0.0
  0
VERTEX
  5
2FD
  8
1
 10
37.6173
 20
-5.5694
 30
0.0
  0
VERTEX
  5
2FE
  8
1
 10
37.7015
 20
-5.592
 30
0.0
  0
VERTEX
  5
2FF
  8
1
 10
37.7805
 20
-5.6288
 30
0.0
  0
VERTEX
  5
300
  8
1
 10
37.8031
 20
-5.6206
 30
0.0
  0
VERTEX
  5
301
  8
1
 10
37.8186
 20
-5.639
 30
0.0
  0
VERTEX
  5
302
  8
1
 10
37.9054
 20
-5.6466
 30
0.0
  0
VERTEX
  5
303
  8
1
 10
37.9896
 20
-5.6692
 30
0.0
  0
VERTEX
  5
304
  8
1
 10
38.0028
 20
-5.6615
 30
0.0
  0
VERTEX
  5
305
  8
1
 10
38.0052
 20
-5.664
 30
0.0
  0
VERTEX
  5
306
  8
1
 10
38.1041
 20
-5.664
 30
0.0
  0
VERTEX
  5
307
  8
1
 10
38.2025
 20
-5.6726
 30
0.0
  0
VERTEX
  5
308
  8
1
 10
38.2128
 20
-5.664
 30
0.0
  0
VERTEX
  5
309
  8
1
 10
39.0171
 20
-5.664
 30
0.0
  0
VERTEX
  5
30A
  8
1
 10
39.0274
 20
-5.6726
 30
0.0
  0
VERTEX
  5
30B
  8
1
 10
39.1258
 20
-5.664
 30
0.0
  0
VERTEX
  5
30C
  8
1
 10
39.2247
 20
-5.664
 30
0.0
  0
VERTEX
  5
30D
  8
1
 10
39.2337
 20
-5.655
 30
0.0
  0
VERTEX
  5
30E
  8
1
 10
39.2559
 20
-5.6678
 30
0.0
  0
VERTEX
  5
30F
  8
1
 10
39.34
 20
-5.6452
 30
0.0
  0
VERTEX
  5
310
  8
1
 10
39.4268
 20
-5.6376
 30
0.0
  0
VERTEX
  5
311
  8
1
 10
39.4438
 20
-5.6174
 30
0.0
  0
VERTEX
  5
312
  8
1
 10
39.4552
 20
-5.6144
 30
0.0
  0
VERTEX
  5
313
  8
1
 10
39.48
 20
-5.6234
 30
0.0
  0
VERTEX
  5
314
  8
1
 10
39.559
 20
-5.5866
 30
0.0
  0
VERTEX
  5
315
  8
1
 10
39.6431
 20
-5.564
 30
0.0
  0
VERTEX
  5
316
  8
1
 10
39.6563
 20
-5.5412
 30
0.0
  0
VERTEX
  5
317
  8
1
 10
39.6671
 20
-5.5362
 30
0.0
  0
VERTEX
  5
318
  8
1
 10
39.693
 20
-5.5408
 30
0.0
  0
VERTEX
  5
319
  8
1
 10
39.7644
 20
-5.4908
 30
0.0
  0
VERTEX
  5
31A
  8
1
 10
39.8434
 20
-5.4539
 30
0.0
  0
VERTEX
  5
31B
  8
1
 10
39.8524
 20
-5.4292
 30
0.0
  0
VERTEX
  5
31C
  8
1
 10
39.8621
 20
-5.4224
 30
0.0
  0
VERTEX
  5
31D
  8
1
 10
39.8885
 20
-5.4224
 30
0.0
  0
VERTEX
  5
31E
  8
1
 10
39.9501
 20
-5.3608
 30
0.0
  0
VERTEX
  5
31F
  8
1
 10
40.0215
 20
-5.3108
 30
0.0
  0
VERTEX
  5
320
  8
1
 10
40.0261
 20
-5.2848
 30
0.0
  0
VERTEX
  5
321
  8
1
 10
40.0344
 20
-5.2764
 30
0.0
  0
VERTEX
  5
322
  8
1
 10
40.0604
 20
-5.2718
 30
0.0
  0
VERTEX
  5
323
  8
1
 10
40.1104
 20
-5.2005
 30
0.0
  0
VERTEX
  5
324
  8
1
 10
40.172
 20
-5.1389
 30
0.0
  0
VERTEX
  5
325
  8
1
 10
40.172
 20
-5.1125
 30
0.0
  0
VERTEX
  5
326
  8
1
 10
40.1788
 20
-5.1028
 30
0.0
  0
VERTEX
  5
327
  8
1
 10
40.2036
 20
-5.0938
 30
0.0
  0
VERTEX
  5
328
  8
1
 10
40.2404
 20
-5.0148
 30
0.0
  0
VERTEX
  5
329
  8
1
 10
40.2904
 20
-4.9434
 30
0.0
  0
VERTEX
  5
32A
  8
1
 10
40.2858
 20
-4.9174
 30
0.0
  0
VERTEX
  5
32B
  8
1
 10
40.2908
 20
-4.9067
 30
0.0
  0
VERTEX
  5
32C
  8
1
 10
40.3137
 20
-4.8935
 30
0.0
  0
VERTEX
  5
32D
  8
1
 10
40.3362
 20
-4.8093
 30
0.0
  0
VERTEX
  5
32E
  8
1
 10
40.373
 20
-4.7304
 30
0.0
  0
VERTEX
  5
32F
  8
1
 10
40.364
 20
-4.7056
 30
0.0
  0
VERTEX
  5
330
  8
1
 10
40.3671
 20
-4.6941
 30
0.0
  0
VERTEX
  5
331
  8
1
 10
40.3873
 20
-4.6772
 30
0.0
  0
VERTEX
  5
332
  8
1
 10
40.3949
 20
-4.5904
 30
0.0
  0
VERTEX
  5
333
  8
1
 10
40.4174
 20
-4.5062
 30
0.0
  0
VERTEX
  5
334
  8
1
 10
40.4046
 20
-4.484
 30
0.0
  0
VERTEX
  5
335
  8
1
 10
40.4136
 20
-4.475
 30
0.0
  0
VERTEX
  5
336
  8
1
 10
40.4136
 20
-4.3762
 30
0.0
  0
VERTEX
  5
337
  8
1
 10
40.4222
 20
-4.2778
 30
0.0
  0
VERTEX
  5
338
  8
1
 10
40.4136
 20
-4.2675
 30
0.0
  0
VERTEX
  5
339
  8
1
 10
40.4136
 20
-1.7818
 30
0.0
  0
VERTEX
  5
33A
  8
1
 10
41.7968
 20
-1.7818
 30
0.0
  0
VERTEX
  5
33B
  8
1
 10
41.7968
 20
-2.1642
 30
0.0
  0
VERTEX
  5
33C
  8
1
 10
41.9158
 20
-2.2832
 30
0.0
  0
VERTEX
  5
33D
  8
1
 10
56.0934
 20
-2.2832
 30
0.0
  0
VERTEX
  5
33E
  8
1
 10
56.0934
 20
-2.3313
 30
0.0
  0
VERTEX
  5
33F
  8
1
 10
56.2555
 20
-2.4933
 30
0.0
  0
VERTEX
  5
340
  8
1
 10
56.2555
 20
-2.7642
 30
0.0
  0
VERTEX
  5
341
  8
1
 10
56.4935
 20
-3.0022
 30
0.0
  0
VERTEX
  5
342
  8
1
 10
59.5982
 20
-3.0022
 30
0.0
  0
VERTEX
  5
343
  8
1
 10
59.8363
 20
-2.7642
 30
0.0
  0
VERTEX
  5
344
  8
1
 10
59.8363
 20
-2.3532
 30
0.0
  0
VERTEX
  5
345
  8
1
 10
59.9063
 20
-2.2832
 30
0.0
  0
VERTEX
  5
346
  8
1
 10
80.0
 20
-2.2832
 30
0.0
  0
VERTEX
  5
347
  8
1
 10
80.0
 20
-19.0
 30
0.0
  0
VERTEX
  5
348
  8
1
 10
0.0
 20
-19.0
 30
0.0
  0
VERTEX
  5
349
  8
1
 10
0.0
 20
19.0
 30
0.0
  0
VERTEX
  5
34A
  8
1
 10
80.0
 20
19.0
 30
0.0
  0
SEQEND
  5
365
  8
1
  0
ENDSEC
  0
EOF
